# Blender v2.78 (sub 0) OBJ File: 'grass.blend'
# www.blender.org
mtllib grass.mtl
o Plane
v -0.067594 0.006368 -0.000000
v 0.067594 0.006368 -0.000000
v -0.097425 1.988067 -1.158921
v 0.097425 1.988067 -1.158921
v -0.182364 1.805233 -0.753119
v -0.200182 1.065075 -0.291401
v -0.106159 0.387885 -0.000000
v 0.106159 0.387885 -0.000000
v 0.200182 1.065075 -0.291401
v 0.182364 1.805233 -0.753119
v -0.081131 1.471434 -1.459316
v -0.031351 1.471434 -1.459316
v 0.088285 0.006368 -0.002646
v 0.196261 0.006368 0.078697
v 0.534333 1.122890 -0.644319
v 0.689963 1.122890 -0.527077
v 0.251100 1.206488 -0.409513
v 0.052350 1.065075 -0.175299
v 0.057482 0.387885 -0.025851
v 0.227064 0.387885 0.101902
v 0.372128 1.065075 0.065602
v 0.542415 1.206488 -0.190054
v 0.958678 0.083572 -1.087057
v 0.998439 0.083572 -1.057104
v -0.027833 -0.001371 -0.076576
v 0.036994 -0.001371 0.042054
v 0.643123 1.998629 -0.477226
v 0.736561 1.998629 -0.306241
v 0.288268 1.617111 -0.380104
v 0.010623 1.057336 -0.248685
v -0.046327 0.380147 -0.110419
v 0.055488 0.380147 0.075896
v 0.202612 1.057336 0.102642
v 0.463168 1.617111 -0.060047
v 1.212277 2.327039 -0.705591
v 1.236148 2.327039 -0.661907
v 0.049238 -0.001371 0.058942
v 0.029636 -0.001371 0.192700
v 0.826216 1.998629 0.142653
v 0.797964 1.998629 0.335444
v 0.484348 1.617111 0.006708
v 0.183513 1.057336 -0.055385
v 0.054830 0.380147 0.020783
v 0.024045 0.380147 0.230858
v 0.125462 1.057336 0.340747
v 0.431464 1.617111 0.367582
v 1.418218 2.327039 0.302717
v 1.411000 2.327039 0.351971
v 0.162569 0.006368 0.188537
v 0.055676 0.006368 0.271298
v 0.664225 1.242939 0.787739
v 0.510157 1.242939 0.907026
v 0.512240 1.152280 0.452694
v 0.338592 0.912649 0.199309
v 0.193063 0.387885 0.164927
v 0.025181 0.387885 0.294908
v 0.022023 0.912649 0.444411
v 0.223848 1.152280 0.675980
v 1.207809 0.729531 0.929069
v 1.168448 0.729531 0.959544
v 0.040935 0.006368 0.286058
v -0.094241 0.006368 0.287842
v 0.081074 1.734641 1.066501
v -0.113759 1.734641 1.069073
v 0.161279 1.624850 0.707444
v 0.175047 1.065075 0.400576
v 0.079497 0.387885 0.285548
v -0.132803 0.387885 0.288352
v -0.225282 1.065075 0.405862
v -0.203417 1.624850 0.712259
v 0.016585 1.707716 1.676359
v -0.033191 1.707716 1.677016
v 0.178010 -0.001371 0.273427
v 0.054126 -0.001371 0.219313
v -0.107241 1.998629 1.000981
v -0.285799 1.998629 0.922985
v 0.113886 1.617111 0.706945
v 0.252967 1.057336 0.433058
v 0.213351 0.380147 0.288865
v 0.018784 0.380147 0.203876
v -0.113922 1.057336 0.272797
v -0.220346 1.617111 0.560948
v -0.417469 2.327038 1.529985
v -0.463087 2.327038 1.510058
v 0.034105 -0.001371 0.213456
v -0.032282 -0.001371 0.095692
v -0.631503 1.998629 0.622929
v -0.727190 1.998629 0.453193
v -0.277961 1.617111 0.521130
v -0.002076 1.057336 0.386057
v 0.053044 0.380147 0.247051
v -0.051221 0.380147 0.062097
v -0.198686 1.057336 0.037295
v -0.457072 1.617111 0.203411
v -1.197591 2.327038 0.858788
v -1.222038 2.327038 0.815424
v -0.005165 0.006368 0.213811
v -0.092588 0.006368 0.110696
v -0.581515 1.502105 0.741564
v -0.707521 1.502105 0.592940
v -0.253544 1.624850 0.574860
v -0.008115 1.065075 0.390139
v 0.019775 0.387885 0.243227
v -0.117528 0.387885 0.081279
v -0.267024 1.065075 0.084759
v -0.489408 1.624850 0.296661
v -1.092907 1.219460 1.080038
v -1.125099 1.219460 1.042067
v -0.107987 0.006368 0.096624
v -0.115769 0.006368 -0.038339
v -0.885880 1.832316 0.171357
v -0.897096 1.832316 -0.023170
v -0.523618 1.624850 0.235550
v -0.216441 1.065075 0.235686
v -0.105767 0.387885 0.135126
v -0.117989 0.387885 -0.076841
v -0.239487 1.065075 -0.164014
v -0.544613 1.624850 -0.128573
v -1.498000 1.479024 0.133996
v -1.500865 1.479024 0.084298
v -0.083856 -0.001371 0.051085
v -0.004761 -0.001371 -0.058548
v -0.734604 1.998629 -0.381617
v -0.620601 1.998629 -0.539635
v -0.493998 1.617111 -0.103293
v -0.255731 1.057336 0.090577
v -0.106420 0.380147 0.082361
v 0.017804 0.380147 -0.089824
v -0.021485 1.057336 -0.234107
v -0.280602 1.617111 -0.399078
v -1.186010 2.327038 -0.796729
v -1.156885 2.327038 -0.837099
v -0.162838 -0.001371 0.050165
v -0.065904 -0.001371 -0.044066
v -0.844541 1.435742 -1.023866
v -0.704827 1.435742 -1.159685
v -0.655927 1.426596 -0.707987
v -0.390590 1.057336 -0.178889
v -0.190491 0.380147 0.077047
v -0.038251 0.380147 -0.070948
v -0.103517 1.057336 -0.457959
v -0.394406 1.426595 -0.962217
v -1.216997 0.932809 -1.511065
v -1.181303 0.932809 -1.545764
vt 0.5287 0.7374
vt 0.7842 0.7374
vt 0.7247 0.7678
vt 0.5882 0.7678
vt 0.6091 0.6015
vt 0.7038 0.6015
vt 0.7308 0.6275
vt 0.5820 0.6275
vt 0.7967 0.6778
vt 0.5162 0.6778
vt 0.6345 0.8086
vt 0.5996 0.8086
vt 0.1473 0.5967
vt 0.3466 0.5502
vt 0.4524 0.5573
vt 0.3459 0.5822
vt 0.0155 0.5236
vt 0.0893 0.5063
vt 0.1163 0.5268
vt 0.0003 0.5538
vt 0.2256 0.5498
vt 0.0068 0.6009
vt 0.6797 0.5945
vt 0.6525 0.6009
vt 0.2475 0.4228
vt 0.3659 0.3870
vt 0.5588 0.3873
vt 0.4955 0.4064
vt 0.0053 0.3585
vt 0.0492 0.3452
vt 0.0692 0.3662
vt 0.0003 0.3870
vt 0.1802 0.3835
vt 0.0502 0.4228
vt 0.9080 0.3715
vt 0.8919 0.3781
vt 0.3407 0.9429
vt 0.3060 0.9167
vt 0.5579 0.9317
vt 0.5764 0.9457
vt 0.0132 0.9620
vt 0.0003 0.9523
vt 0.0119 0.9291
vt 0.0322 0.9444
vt 0.0931 0.9108
vt 0.1312 0.9395
vt 0.9778 0.9545
vt 0.9875 0.9620
vt 0.3422 0.4668
vt 0.1469 0.4234
vt 0.3453 0.4357
vt 0.4497 0.4589
vt 0.0878 0.5057
vt 0.0154 0.4896
vt 0.0003 0.4599
vt 0.1140 0.4852
vt 0.0054 0.4234
vt 0.2199 0.4711
vt 0.7996 0.4841
vt 0.8460 0.4948
vt 0.2711 0.7937
vt 0.0156 0.7937
vt 0.0784 0.7681
vt 0.2149 0.7681
vt 0.1868 0.9102
vt 0.0921 0.9102
vt 0.0651 0.8842
vt 0.2139 0.8842
vt 0.0003 0.8373
vt 0.2808 0.8373
vt 0.1348 0.7265
vt 0.1697 0.7265
vt 0.4112 0.6015
vt 0.1834 0.6566
vt 0.1312 0.6309
vt 0.2529 0.6015
vt 0.4813 0.7055
vt 0.3969 0.7259
vt 0.3667 0.7064
vt 0.4993 0.6743
vt 0.2655 0.6825
vt 0.5156 0.6220
vt 0.0003 0.6106
vt 0.0314 0.6030
vt 0.6584 0.2663
vt 0.5371 0.3027
vt 0.3464 0.3024
vt 0.4112 0.2829
vt 0.8979 0.3311
vt 0.8530 0.3446
vt 0.8327 0.3236
vt 0.9033 0.3024
vt 0.7215 0.3063
vt 0.8546 0.2663
vt 0.0003 0.3183
vt 0.0168 0.3118
vt 0.6084 0.1776
vt 0.4489 0.2246
vt 0.2946 0.2300
vt 0.3798 0.2049
vt 0.8066 0.2482
vt 0.7474 0.2657
vt 0.7232 0.2457
vt 0.8161 0.2183
vt 0.6099 0.2292
vt 0.7850 0.1776
vt 0.0003 0.2472
vt 0.0221 0.2408
vt 0.6693 0.9626
vt 0.6552 0.9869
vt 0.4138 0.9819
vt 0.4213 0.9688
vt 0.9905 0.9907
vt 0.9852 0.9997
vt 0.9617 0.9895
vt 0.9700 0.9753
vt 0.8670 0.9893
vt 0.8826 0.9626
vt 0.0003 0.9819
vt 0.0022 0.9747
vt 0.4902 0.1240
vt 0.6334 0.1709
vt 0.3954 0.1443
vt 0.3189 0.1192
vt 0.7984 0.0923
vt 0.8514 0.1097
vt 0.8585 0.1394
vt 0.7751 0.1121
vt 0.8189 0.1770
vt 0.6617 0.1255
vt 0.0217 0.0994
vt 0.0003 0.0923
vt 0.3986 0.0265
vt 0.5733 0.0847
vt 0.3583 0.0488
vt 0.2650 0.0177
vt 0.7648 0.0003
vt 0.8295 0.0219
vt 0.8397 0.0527
vt 0.7381 0.0189
vt 0.7814 0.0917
vt 0.5897 0.0278
vt 0.0241 0.0082
vt 0.0003 0.0003
vn 0.0000 0.9117 0.4108
vn 0.0000 -0.0000 1.0000
vn 0.0000 0.3953 0.9186
vn 0.0000 0.5293 0.8485
vn 0.0000 0.5027 -0.8645
vn 0.1368 0.9738 -0.1816
vn -0.6017 -0.0000 0.7987
vn -0.5930 0.1692 0.7872
vn -0.2520 0.9081 0.3345
vn 0.5192 0.5055 -0.6891
vn -0.6399 0.6842 0.3497
vn -0.8775 -0.0000 0.4795
vn -0.8649 0.1692 0.4726
vn -0.7696 0.4805 0.4206
vn -0.4165 0.8802 0.2276
vn -0.7216 0.6842 -0.1057
vn -0.9894 -0.0000 -0.1450
vn -0.9752 0.1692 -0.1429
vn -0.8678 0.4805 -0.1272
vn -0.4697 0.8802 -0.0688
vn -0.1503 0.9694 -0.1941
vn -0.6122 -0.0000 -0.7907
vn -0.5977 0.2163 -0.7720
vn -0.3769 0.7880 -0.4869
vn 0.4628 0.6546 0.5978
vn -0.0039 0.9560 -0.2932
vn -0.0132 -0.0000 -0.9999
vn -0.0130 0.1692 -0.9855
vn -0.0116 0.4805 -0.8769
vn 0.0006 0.9990 0.0442
vn 0.2919 0.6842 -0.6683
vn 0.4003 -0.0000 -0.9164
vn 0.3945 0.1692 -0.9032
vn 0.3511 0.4805 -0.8037
vn 0.1900 0.8802 -0.4350
vn 0.6353 0.6842 -0.3581
vn 0.8711 -0.0000 -0.4911
vn 0.8585 0.1692 -0.4840
vn 0.7640 0.4805 -0.4307
vn 0.4135 0.8802 -0.2331
vn -0.2474 0.9459 0.2098
vn 0.7628 0.0000 -0.6467
vn 0.7518 0.1692 -0.6374
vn 0.6690 0.4805 -0.5672
vn -0.3211 0.9071 0.2723
vn 0.5006 0.8652 -0.0289
vn 0.9983 -0.0000 -0.0576
vn 0.9839 0.1692 -0.0567
vn 0.8756 0.4805 -0.0505
vn -0.5010 0.8650 0.0289
vn 0.5914 0.6842 0.4267
vn 0.8110 -0.0000 0.5851
vn 0.7993 0.1692 0.5766
vn 0.7112 0.4805 0.5131
vn 0.3849 0.8802 0.2777
vn 0.0178 0.9997 0.0183
vn 0.6970 -0.0000 0.7170
vn 0.6291 0.4305 0.6472
vn 0.3817 0.8368 0.3926
vn -0.4439 0.7710 -0.4566
usemtl None
s off
f 5/1/1 10/2/1 4/3/1 3/4/1
f 1/5/2 2/6/2 8/7/2 7/8/2
f 7/8/3 8/7/3 9/9/3 6/10/3
f 6/10/4 9/9/4 10/2/4 5/1/4
f 3/4/5 4/3/5 12/11/5 11/12/5
f 17/13/6 22/14/6 16/15/6 15/16/6
f 13/17/7 14/18/7 20/19/7 19/20/7
f 19/20/8 20/19/8 21/21/8 18/22/8
f 18/22/9 21/21/9 22/14/9 17/13/9
f 15/16/10 16/15/10 24/23/10 23/24/10
f 29/25/11 34/26/11 28/27/11 27/28/11
f 25/29/12 26/30/12 32/31/12 31/32/12
f 31/32/13 32/31/13 33/33/13 30/34/13
f 30/34/14 33/33/14 34/26/14 29/25/14
f 27/28/15 28/27/15 36/35/15 35/36/15
f 41/37/16 46/38/16 40/39/16 39/40/16
f 37/41/17 38/42/17 44/43/17 43/44/17
f 43/44/18 44/43/18 45/45/18 42/46/18
f 42/46/19 45/45/19 46/38/19 41/37/19
f 39/40/20 40/39/20 48/47/20 47/48/20
f 53/49/21 58/50/21 52/51/21 51/52/21
f 49/53/22 50/54/22 56/55/22 55/56/22
f 55/56/23 56/55/23 57/57/23 54/58/23
f 54/58/24 57/57/24 58/50/24 53/49/24
f 51/52/25 52/51/25 60/59/25 59/60/25
f 65/61/26 70/62/26 64/63/26 63/64/26
f 61/65/27 62/66/27 68/67/27 67/68/27
f 67/68/28 68/67/28 69/69/28 66/70/28
f 66/70/29 69/69/29 70/62/29 65/61/29
f 63/64/30 64/63/30 72/71/30 71/72/30
f 77/73/31 82/74/31 76/75/31 75/76/31
f 73/77/32 74/78/32 80/79/32 79/80/32
f 79/80/33 80/79/33 81/81/33 78/82/33
f 78/82/34 81/81/34 82/74/34 77/73/34
f 75/76/35 76/75/35 84/83/35 83/84/35
f 89/85/36 94/86/36 88/87/36 87/88/36
f 85/89/37 86/90/37 92/91/37 91/92/37
f 91/92/38 92/91/38 93/93/38 90/94/38
f 90/94/39 93/93/39 94/86/39 89/85/39
f 87/88/40 88/87/40 96/95/40 95/96/40
f 101/97/41 106/98/41 100/99/41 99/100/41
f 97/101/42 98/102/42 104/103/42 103/104/42
f 103/104/43 104/103/43 105/105/43 102/106/43
f 102/106/44 105/105/44 106/98/44 101/97/44
f 99/100/45 100/99/45 108/107/45 107/108/45
f 113/109/46 118/110/46 112/111/46 111/112/46
f 109/113/47 110/114/47 116/115/47 115/116/47
f 115/116/48 116/115/48 117/117/48 114/118/48
f 114/118/49 117/117/49 118/110/49 113/109/49
f 111/112/50 112/111/50 120/119/50 119/120/50
f 125/121/51 130/122/51 124/123/51 123/124/51
f 121/125/52 122/126/52 128/127/52 127/128/52
f 127/128/53 128/127/53 129/129/53 126/130/53
f 126/130/54 129/129/54 130/122/54 125/121/54
f 123/124/55 124/123/55 132/131/55 131/132/55
f 137/133/56 142/134/56 136/135/56 135/136/56
f 133/137/57 134/138/57 140/139/57 139/140/57
f 139/140/58 140/139/58 141/141/58 138/142/58
f 138/142/59 141/141/59 142/134/59 137/133/59
f 135/136/60 136/135/60 144/143/60 143/144/60
